<svg class="border shadow-md" viewBox="0 0 1531.2 765.6" style="width: 1531.2px; height: 765.6px;" xmlns="http://www.w3.org/2000/svg" preserveAspectRatio="none"><rect class="bg" id="bg" x="0" y="0" width="1531.2" height="765.6" fill="#ffffff"/><path d="M 0 -76.56 L 0 -76.56&#10;                L 102.08 -38.28&#10;                L 306.24 -76.56 L 306.24 -76.56&#10;                L 408.32 -38.28&#10;                L 612.48 -76.56 L 612.48 -76.56&#10;                L 806.48 -23.56&#10;                L 918.72 -76.56 L 918.72 -76.56&#10;                L 1020.80 -10.56&#10;                L 1224.96 -76.56 L 1224.96 -76.56&#10;                L 1363.96 -31.56&#10;                L 1531.2 -76.56 L 1531.2 -76.56&#10;                L 1722.20 -38.28&#10;                L 1837.44 -76.56  V 765.60 H 0 V -76.56 Z" fill="#FFFFFF"/><path d="M 0 0 L 0 0.00&#10;                L 102.08 63.00&#10;                L 306.24 0.00 L 306.24 0.00&#10;                L 408.32 38.28&#10;                L 612.48 0.00 L 612.48 0.00&#10;                L 773.48 38.28&#10;                L 918.72 0.00 L 918.72 0.00&#10;                L 1109.72 42.00&#10;                L 1224.96 0.00 L 1224.96 0.00&#10;                L 1327.04 75.00&#10;                L 1531.2 0.00 L 1531.2 0.00&#10;                L 1744.20 54.00&#10;                L 1837.44 0.00  V 765.60 H 0 V 0.00 Z" fill="#e9edf5"/><path d="M 0 76.56 L 0 76.56&#10;                L 162.00 114.84&#10;                L 306.24 76.56 L 306.24 76.56&#10;                L 408.32 151.56&#10;                L 612.48 76.56 L 612.48 76.56&#10;                L 783.48 114.84&#10;                L 918.72 76.56 L 918.72 76.56&#10;                L 1020.80 136.56&#10;                L 1224.96 76.56 L 1224.96 76.56&#10;                L 1327.04 130.56&#10;                L 1531.2 76.56 L 1531.2 76.56&#10;                L 1633.28 134.56&#10;                L 1837.44 76.56  V 765.60 H 0 V 76.56 Z" fill="#d3dbeb"/><path d="M 0 153.12 L 0 153.12&#10;                L 193.00 196.12&#10;                L 306.24 153.12 L 306.24 153.12&#10;                L 408.32 219.12&#10;                L 612.48 153.12 L 612.48 153.12&#10;                L 836.48 191.40&#10;                L 918.72 153.12 L 918.72 153.12&#10;                L 1134.72 212.12&#10;                L 1224.96 153.12 L 1224.96 153.12&#10;                L 1327.04 193.12&#10;                L 1531.2 153.12 L 1531.2 153.12&#10;                L 1692.20 191.40&#10;                L 1837.44 153.12  V 765.60 H 0 V 153.12 Z" fill="#bdc9e1"/><path d="M 0 229.68 L 0 229.68&#10;                L 177.00 267.96&#10;                L 306.24 229.68 L 306.24 229.68&#10;                L 429.24 267.96&#10;                L 612.48 229.68 L 612.48 229.68&#10;                L 748.48 292.68&#10;                L 918.72 229.68 L 918.72 229.68&#10;                L 1114.72 267.96&#10;                L 1224.96 229.68 L 1224.96 229.68&#10;                L 1379.96 295.68&#10;                L 1531.2 229.68 L 1531.2 229.68&#10;                L 1638.20 267.96&#10;                L 1837.44 229.68  V 765.60 H 0 V 229.68 Z" fill="#a7b7d7"/><path d="M 0 306.24 L 0 306.24&#10;                L 102.08 344.52&#10;                L 306.24 306.24 L 306.24 306.24&#10;                L 408.32 361.24&#10;                L 612.48 306.24 L 612.48 306.24&#10;                L 741.48 344.52&#10;                L 918.72 306.24 L 918.72 306.24&#10;                L 1131.72 344.52&#10;                L 1224.96 306.24 L 1224.96 306.24&#10;                L 1327.04 344.52&#10;                L 1531.2 306.24 L 1531.2 306.24&#10;                L 1708.20 381.24&#10;                L 1837.44 306.24  V 765.60 H 0 V 306.24 Z" fill="#91a5cd"/><path d="M 0 382.8 L 0 382.80&#10;                L 145.00 421.08&#10;                L 306.24 382.80 L 306.24 382.80&#10;                L 504.24 437.80&#10;                L 612.48 382.80 L 612.48 382.80&#10;                L 753.48 424.80&#10;                L 918.72 382.80 L 918.72 382.80&#10;                L 1020.80 421.08&#10;                L 1224.96 382.80 L 1224.96 382.80&#10;                L 1401.96 421.08&#10;                L 1531.2 382.80 L 1531.2 382.80&#10;                L 1662.20 421.08&#10;                L 1837.44 382.80  V 765.60 H 0 V 382.80 Z" fill="#7b93c3"/><path d="M 0 459.36 L 0 459.36&#10;                L 102.08 497.64&#10;                L 306.24 459.36 L 306.24 459.36&#10;                L 408.32 497.64&#10;                L 612.48 459.36 L 612.48 459.36&#10;                L 817.48 509.36&#10;                L 918.72 459.36 L 918.72 459.36&#10;                L 1020.80 497.64&#10;                L 1224.96 459.36 L 1224.96 459.36&#10;                L 1444.96 522.36&#10;                L 1531.2 459.36 L 1531.2 459.36&#10;                L 1633.28 512.36&#10;                L 1837.44 459.36  V 765.60 H 0 V 459.36 Z" fill="#6581b9"/><path d="M 0 535.9200000000001 L 0 535.92&#10;                L 229.00 574.20&#10;                L 306.24 535.92 L 306.24 535.92&#10;                L 513.24 578.92&#10;                L 612.48 535.92 L 612.48 535.92&#10;                L 714.56 574.20&#10;                L 918.72 535.92 L 918.72 535.92&#10;                L 1061.72 574.92&#10;                L 1224.96 535.92 L 1224.96 535.92&#10;                L 1365.96 574.20&#10;                L 1531.2 535.92 L 1531.2 535.92&#10;                L 1633.28 574.20&#10;                L 1837.44 535.92  V 765.60 H 0 V 535.92 Z" fill="#4f6faf"/><path d="M 0 612.48 L 0 612.48&#10;                L 203.00 650.76&#10;                L 306.24 612.48 L 306.24 612.48&#10;                L 534.24 669.48&#10;                L 612.48 612.48 L 612.48 612.48&#10;                L 714.56 652.48&#10;                L 918.72 612.48 L 918.72 612.48&#10;                L 1020.80 650.76&#10;                L 1224.96 612.48 L 1224.96 612.48&#10;                L 1327.04 650.76&#10;                L 1531.2 612.48 L 1531.2 612.48&#10;                L 1633.28 659.48&#10;                L 1837.44 612.48  V 765.60 H 0 V 612.48 Z" fill="#395da5"/><path d="M 0 689.04 L 0 689.04&#10;                L 111.00 727.32&#10;                L 306.24 689.04 L 306.24 689.04&#10;                L 505.24 727.32&#10;                L 612.48 689.04 L 612.48 689.04&#10;                L 714.56 748.04&#10;                L 918.72 689.04 L 918.72 689.04&#10;                L 1020.80 733.04&#10;                L 1224.96 689.04 L 1224.96 689.04&#10;                L 1328.96 744.04&#10;                L 1531.2 689.04 L 1531.2 689.04&#10;                L 1745.20 737.04&#10;                L 1837.44 689.04  V 765.60 H 0 V 689.04 Z" fill="#234b9b"/></svg>