<svg viewBox="0 0 100 100" xmlns="http://www.w3.org/2000/svg"><path d="M70.5,59.5Q61,69,43.5,80Q26,91,23.5,70.5Q21,50,25,32Q29,14,46.5,20Q64,26,72,38Q80,50,70.5,59.5Z" stroke="none" stroke-width="0" fill="#e7eef6"/><path d="M74.5,67.5Q70,85,47.5,89Q25,93,14,71.5Q3,50,20.5,39.5Q38,29,50,29.5Q62,30,70.5,40Q79,50,74.5,67.5Z" stroke="none" stroke-width="0" fill="#d3e4f4"/><path d="M76.5,64.5Q67,79,52.5,75Q38,71,30,60.5Q22,50,29.5,38.5Q37,27,49.5,28Q62,29,74,39.5Q86,50,76.5,64.5Z" stroke="none" stroke-width="0" fill="#bfdaf2"/><path d="M68.5,65Q67,80,53,75Q39,70,24,60Q9,50,19,31.5Q29,13,47.5,18Q66,23,68,36.5Q70,50,68.5,65Z" stroke="none" stroke-width="0" fill="#abd0f0"/><path d="M68.5,65Q67,80,53,75Q39,70,24,60Q9,50,19,31.5Q29,13,47.5,18Q66,23,68,36.5Q70,50,68.5,65Z" stroke="none" stroke-width="0" fill="#97c6ee"/><path d="M70.5,64Q66,78,50,77.5Q34,77,25,63.5Q16,50,25.5,37Q35,24,49,25.5Q63,27,69,38.5Q75,50,70.5,64Z" stroke="none" stroke-width="0" fill="#83bcec"/><path d="M78.5,61.5Q63,73,51.5,70.5Q40,68,31.5,59Q23,50,30.5,40Q38,30,56,19Q74,8,84,29Q94,50,78.5,61.5Z" stroke="none" stroke-width="0" fill="#6fb2ea"/><path d="M80,67.5Q70,85,52,81.5Q34,78,20.5,64Q7,50,17.5,30.5Q28,11,49.5,12.5Q71,14,80.5,32Q90,50,80,67.5Z" stroke="none" stroke-width="0" fill="#5ba8e8"/></svg>